<?xml version="1.0" standalone="no"?>
<!DOCTYPE svg PUBLIC "-//W3C//DTD SVG 20010904//EN"
 "http://www.w3.org/TR/2001/REC-SVG-20010904/DTD/svg10.dtd">
<svg version="1.0" xmlns="http://www.w3.org/2000/svg"
 width="512.000000pt" height="512.000000pt" viewBox="0 0 512.000000 512.000000"
 preserveAspectRatio="xMidYMid meet">
<metadata>
Created by potrace 1.14, written by Peter Selinger 2001-2017
</metadata>
<g transform="translate(0.000000,512.000000) scale(0.100000,-0.100000)"
fill="#000000" stroke="none">
<path d="M2518 5005 c-2 -2 -31 -6 -66 -9 -184 -19 -406 -130 -548 -274 -132
-134 -214 -285 -254 -469 -34 -159 -29 -314 15 -468 49 -166 130 -297 271
-437 124 -123 159 -187 169 -316 4 -45 10 -62 31 -79 l25 -23 414 0 c422 0
456 3 470 38 3 9 8 36 11 61 14 133 56 210 180 331 124 122 203 246 252 400
56 172 61 364 15 534 -14 51 -21 60 -51 73 -19 8 -40 12 -47 9 -15 -5 -31 44
-17 53 18 12 32 51 26 75 -11 47 -57 72 -101 55 -17 -6 -23 -5 -23 5 0 8 -5
16 -11 18 -8 3 -7 13 3 33 20 41 11 67 -42 121 -123 126 -322 227 -499 255
-65 10 -217 19 -223 14z"/>
<path d="M1146 2998 c-77 -7 -129 -15 -166 -23 -14 -3 -47 -10 -74 -15 -202
-40 -560 -220 -696 -350 -9 -8 -32 -29 -51 -45 l-35 -31 0 -1209 1 -1210 1203
0 c963 0 1205 2 1214 12 7 9 43 13 120 13 137 0 168 13 168 73 0 58 -36 85
-111 82 l-37 -1 40 58 c46 67 9 60 308 59 198 -1 230 5 249 45 8 17 11 153 11
440 l0 415 -26 24 c-24 22 -35 25 -141 27 l-115 3 -3 47 c-13 192 -71 431
-137 561 -11 22 -17 41 -15 43 7 7 658 5 718 -2 141 -17 294 -92 404 -199 110
-106 171 -208 206 -343 32 -125 62 -112 -268 -112 -277 -1 -289 -1 -313 -21
l-25 -21 -1 -427 -1 -426 27 -26 26 -27 215 0 c118 -1 246 -1 284 -2 l70 0 -1
-50 c-1 -27 -2 -54 -3 -58 0 -5 -26 -8 -56 -7 -99 2 -147 -38 -124 -103 17
-50 35 -53 272 -50 243 3 250 6 250 73 0 58 -28 78 -112 79 -69 1 -71 1 -72
26 0 14 -2 38 -3 53 -1 16 2 31 7 34 4 2 134 5 289 5 154 0 290 3 300 6 11 2
26 15 35 29 14 20 16 78 16 439 0 439 -2 456 -47 468 -11 3 -148 6 -303 6
-156 0 -283 2 -283 4 0 2 -7 40 -15 83 -54 287 -242 526 -508 648 -62 28 -103
41 -231 72 -12 3 -205 6 -429 7 l-409 1 -38 57 c-37 56 -38 78 -3 78 19 0 108
94 123 130 7 16 18 30 24 31 6 0 36 2 66 3 67 3 95 17 108 53 11 34 1 66 -30
87 -19 14 -64 16 -336 16 l-313 0 -44 33 c-24 17 -44 34 -45 37 0 3 163 5 362
4 l363 -1 27 27 c32 33 30 74 -6 106 -22 20 -32 20 -450 20 l-428 -1 -23 -29
c-12 -15 -25 -24 -29 -18 -18 30 -361 150 -478 167 -24 4 -45 8 -48 10 -25 15
-315 24 -424 13z m1529 -530 c8 -7 -63 -45 -82 -44 -6 1 -20 13 -31 27 l-21
25 64 0 c35 -1 67 -4 70 -8z"/>
</g>
</svg>
